:FULLY-SPECIFIED
:FORCE-ALL-JOINTS-BE-3DOF
:DEGREES
2446
root 2.60024 14.7337 -23.4059 -151.231 82.991 -150.5
lfemur -35.9997 19.8148 -13.5717
ltibia 74.5539 -0 0
lfoot -26.0614 16.5457 -0.156993
ltoes -38.5605 0 0
rfemur -41.3429 -22.3367 10.7884
rtibia 60.3513 -0 0
rfoot 8.56472 -1.49871 0.876569
rtoes 1.97191 -0 0
lowerback 15.8931 0.834577 -4.18234
upperback -1.00846 0.628767 2.82585
thorax -9.96297 0.632853 5.33075
lowerneck 3.13194 -13.4454 -15.3185
upperneck 1.72746 -18.6889 12.9815
head 2.67075 -9.41784 5.61395
lclavicle 8.45204e-15 -1.20016e-14 7.05004e-31
lhumerus -39.3018 -41.9283 108.912
lradius 104.994 -0 0
lwrist 63.6113 0 0
lhand 0.990511 41.8409 0.0747615
lfingers 7.12502 -0 0
lthumb 26.4221 68.6452 -0.282396
rclavicle 8.45204e-15 -1.20016e-14 7.05004e-31
rhumerus 15.3338 11.2344 -70.8868
rradius 110.19 -0 0
rwrist 10.3233 0 0
rhand -31.883 -45.0618 0.447504
rfingers 7.12502 -0 0
rthumb -5.13308 -74.5622 0.435347
2447
root 2.69028 14.7237 -23.4301 -151.51 82.9459 -150.529
lfemur -35.3813 20.1027 -13.4955
ltibia 74.6711 -0 0
lfoot -26.4911 16.7672 -0.146395
ltoes -38.4554 0 0
rfemur -41.5351 -22.4215 10.2424
rtibia 58.9112 -0 0
rfoot 9.36816 -0.837018 0.817181
rtoes 2.61192 -0 0
lowerback 15.889 0.677102 -4.33136
upperback -1.0108 0.403221 2.93929
thorax -9.95024 0.536956 5.59671
lowerneck 3.12217 -13.4535 -15.3784
upperneck 1.90982 -18.7092 12.9144
head 2.72803 -9.42803 5.593
lclavicle 8.71713e-15 -1.36138e-14 6.57472e-31
lhumerus -40.4069 -42.4202 109.513
lradius 105.591 -0 0
lwrist 65.3258 0 0
lhand 2.46093 41.8717 0.0696719
lfingers 7.12502 -0 0
lthumb 27.8331 68.5238 -0.263185
rclavicle 8.71713e-15 -1.36138e-14 6.57472e-31
rhumerus 13.5831 9.22988 -71.4429
rradius 109.903 -0 0
rwrist 13.421 0 0
rhand -32.8736 -45.3358 0.41719
rfingers 7.12502 -0 0
rthumb -6.08913 -74.8384 0.405865
2448
root 2.77728 14.7141 -23.4536 -151.776 82.9023 -150.555
lfemur -34.7824 20.3801 -13.4186
ltibia 74.7845 -0 0
lfoot -26.9062 16.9812 -0.134581
ltoes -38.3539 0 0
rfemur -41.72 -22.5051 9.71489
rtibia 57.5199 -0 0
rfoot 10.1437 -0.198578 0.751001
rtoes 3.23027 -0 0
lowerback 15.8854 0.524946 -4.47533
upperback -1.01349 0.185353 3.04887
thorax -9.93836 0.444249 5.85365
lowerneck 3.11275 -13.4613 -15.4364
upperneck 2.08606 -18.7287 12.8495
head 2.78338 -9.43786 5.57274
lclavicle 8.97326e-15 -1.51714e-14 6.04464e-31
lhumerus -41.4895 -42.8871 110.11
lradius 106.169 -0 0
lwrist 66.9822 0 0
lhand 3.8816 41.9014 0.0640043
lfingers 7.12502 -0 0
lthumb 29.1963 68.407 -0.241789
rclavicle 8.97326e-15 -1.51714e-14 6.04464e-31
rhumerus 11.9189 7.27827 -71.9186
rradius 109.626 -0 0
rwrist 16.4139 0 0
rhand -33.8305 -45.5999 0.383407
rfingers 7.12502 -0 0
rthumb -7.01268 -75.1047 0.373008
2449
root 2.86076 14.7049 -23.4761 -152.031 82.8605 -150.578
lfemur -34.2063 20.6456 -13.3417
ltibia 74.8932 -0 0
lfoot -27.3045 17.1864 -0.121787
ltoes -38.2565 0 0
rfemur -41.8968 -22.5868 9.20866
rtibia 56.1848 -0 0
rfoot 10.8871 0.413156 0.679381
rtoes 3.82363 -0 0
lowerback 15.8823 0.378933 -4.61346
upperback -1.01647 -0.0237352 3.15405
thorax -9.92735 0.355241 6.10017
lowerneck 3.10371 -13.4688 -15.4919
upperneck 2.25522 -18.7472 12.7872
head 2.83649 -9.44727 5.5533
lclavicle 9.21903e-15 -1.66661e-14 5.47052e-31
lhumerus -42.5424 -43.3272 110.698
lradius 106.722 -0 0
lwrist 68.5717 0 0
lhand 5.24484 41.9297 0.0578757
lfingers 7.12502 -0 0
lthumb 30.5044 68.2954 -0.218651
rclavicle 9.21903e-15 -1.66661e-14 5.47052e-31
rhumerus 10.3431 5.39351 -72.3197
rradius 109.36 -0 0
rwrist 19.2858 0 0
rhand -34.7487 -45.8528 0.346847
rfingers 7.12502 -0 0
rthumb -7.89875 -75.3597 0.337449
2450
root 2.94026 14.6961 -23.4975 -152.272 82.8206 -150.599
lfemur -33.6563 20.8977 -13.2658
ltibia 74.9967 -0 0
lfoot -27.6837 17.3817 -0.108278
ltoes -38.1638 0 0
rfemur -42.0645 -22.6659 8.72657
rtibia 54.9134 -0 0
rfoot 11.5943 0.994774 0.603812
rtoes 4.38867 -0 0
lowerback 15.8797 0.239884 -4.74499
upperback -1.01965 -0.222837 3.25422
thorax -9.91722 0.270439 6.33492
lowerneck 3.09511 -13.476 -15.5449
upperneck 2.41634 -18.7646 12.7277
head 2.88708 -9.45622 5.53477
lclavicle 9.45308e-15 -1.80894e-14 4.8642e-31
lhumerus -43.5578 -43.7389 111.273
lradius 107.25 -0 0
lwrist 70.0853 0 0
lhand 6.54302 41.9566 0.0514148
lfingers 7.12502 -0 0
lthumb 31.75 68.1896 -0.194255
rclavicle 9.45308e-15 -1.80894e-14 4.8642e-31
rhumerus 8.85875 3.58921 -72.6523
rradius 109.107 -0 0
rwrist 22.0206 0 0
rhand -35.6228 -46.0931 0.308269
rfingers 7.12502 -0 0
rthumb -8.74237 -75.602 0.299925
2451
root 3.0153 14.6878 -23.5177 -152.498 82.783 -150.617
lfemur -33.1359 21.1351 -13.1916
ltibia 75.0945 -0 0
lfoot -28.0416 17.566 -0.0943405
ltoes -38.0762 0 0
rfemur -42.2223 -22.7418 8.27137
rtibia 53.7132 -0 0
rfoot 12.2612 1.54291 0.525898
rtoes 4.92215 -0 0
lowerback 15.8776 0.10862 -4.86915
upperback -1.02298 -0.410779 3.34879
thorax -9.90798 0.19035 6.55649
lowerneck 3.087 -13.4828 -15.5949
upperneck 2.56846 -18.781 12.6716
head 2.93483 -9.46465 5.51727
lclavicle 9.67401e-15 -1.9433e-14 4.2385e-31
lhumerus -44.528 -44.1206 111.828
lradius 107.748 -0 0
lwrist 71.5142 0 0
lhand 7.76846 41.9817 0.0447595
lfingers 7.12502 -0 0
lthumb 32.9257 68.0903 -0.169121
rclavicle 9.67401e-15 -1.9433e-14 4.2385e-31
rhumerus 7.46921 1.87867 -72.9227
rradius 108.868 -0 0
rwrist 24.6023 0 0
rhand -36.4478 -46.3193 0.268494
rfingers 7.12502 -0 0
rthumb -9.53858 -75.8301 0.261234
2452
root 3.08542 14.68 -23.5366 -152.708 82.7478 -150.633
lfemur -32.6487 21.3563 -13.1201
ltibia 75.1858 -0 0
lfoot -28.3761 17.7382 -0.0802711
ltoes -37.9944 0 0
rfemur -42.3692 -22.8137 7.84611
rtibia 52.5917 -0 0
rfoot 12.8836 2.05423 0.447337
rtoes 5.42053 -0 0
lowerback 15.8758 -0.0140364 -4.98515
upperback -1.02637 -0.586387 3.43717
thorax -9.89963 0.115484 6.76352
lowerneck 3.07943 -13.4891 -15.6416
upperneck 2.71064 -18.7961 12.619
head 2.97946 -9.47252 5.50092
lclavicle 9.88045e-15 -2.06885e-14 3.60701e-31
lhumerus -45.4448 -44.4711 112.358
lradius 108.213 -0 0
lwrist 72.8493 0 0
lhand 8.91353 42.0052 0.0380552
lfingers 7.12502 -0 0
lthumb 34.0243 67.998 -0.143799
rclavicle 9.88045e-15 -2.06885e-14 3.60701e-31
rhumerus 6.17885 0.274859 -73.1378
rradius 108.645 -0 0
rwrist 27.0146 0 0
rhand -37.2185 -46.5302 0.228388
rfingers 7.12502 -0 0
rthumb -10.2824 -76.0429 0.222218
2453
root 3.15015 14.6729 -23.554 -152.9 82.7153 -150.647
lfemur -32.1981 21.56 -13.0522
ltibia 75.2701 -0 0
lfoot -28.6848 17.897 -0.0663984
ltoes -37.9189 0 0
rfemur -42.5043 -22.881 7.45351
rtibia 51.5565 -0 0
rfoot 13.4574 2.52545 0.369892
rtoes 5.88059 -0 0
lowerback 15.8744 -0.127241 -5.09221
upperback -1.02974 -0.748489 3.51877
thorax -9.89215 0.0463464 6.95462
lowerneck 3.07244 -13.495 -15.6847
upperneck 2.8419 -18.8099 12.5705
head 3.02066 -9.47976 5.48581
lclavicle 1.0071e-14 -2.18474e-14 2.98392e-31
lhumerus -46.3001 -44.7892 112.858
lradius 108.643 -0 0
lwrist 74.0818 0 0
lhand 9.97056 42.0266 0.0314523
lfingers 7.12502 -0 0
lthumb 35.0384 67.9132 -0.118857
rclavicle 1.0071e-14 -2.18474e-14 2.98392e-31
rhumerus 4.99278 -1.2096 -73.3043
rradius 108.439 -0 0
rwrist 29.2414 0 0
rhand -37.9299 -46.7243 0.18885
rfingers 7.12502 -0 0
rthumb -10.9689 -76.2388 0.183754
2454
root 3.20902 14.6664 -23.5699 -153.075 82.6857 -150.659
lfemur -31.7874 21.7448 -12.9888
ltibia 75.3468 -0 0
lfoot -28.9654 18.0413 -0.053039
ltoes -37.8502 0 0
rfemur -42.6268 -22.943 7.09644
rtibia 50.615 -0 0
rfoot 13.9788 2.95332 0.295366
rtoes 6.29901 -0 0
lowerback 15.8733 -0.230222 -5.1896
upperback -1.03301 -0.895913 3.59299
thorax -9.88556 -0.0165533 7.12841
lowerneck 3.06609 -13.5003 -15.7239
upperneck 2.96131 -18.8225 12.5264
head 3.05813 -9.48635 5.47207
lclavicle 1.02443e-14 -2.29015e-14 2.38377e-31
lhumerus -47.0856 -45.0739 113.32
lradius 109.034 -0 0
lwrist 75.2027 0 0
lhand 10.9319 42.0461 0.0251039
lfingers 7.12502 -0 0
lthumb 35.9607 67.8365 -0.0948731
rclavicle 1.02443e-14 -2.29015e-14 2.38377e-31
rhumerus 3.91697 -2.56241 -73.429
rradius 108.251 -0 0
rwrist 31.2667 0 0
rhand -38.5767 -46.9004 0.150802
rfingers 7.12502 -0 0
rthumb -11.5933 -76.4165 0.146729
2455
root 3.26157 14.6605 -23.584 -153.23 82.6594 -150.668
lfemur -31.4202 21.9094 -12.931
ltibia 75.4152 -0 0
lfoot -29.2159 18.1701 -0.0405186
ltoes -37.7889 0 0
rfemur -42.7359 -22.9989 6.77762
rtibia 49.7747 -0 0
rfoot 14.4437 3.33467 0.225556
rtoes 6.67257 -0 0
lowerback 15.8725 -0.322135 -5.27652
upperback -1.03608 -1.02749 3.65924
thorax -9.87983 -0.0727082 7.28352
lowerneck 3.06042 -13.505 -15.7588
upperneck 3.06789 -18.8335 12.4869
head 3.09157 -9.49222 5.4598
lclavicle 1.0399e-14 -2.38422e-14 1.8212e-31
lhumerus -47.7925 -45.3241 113.739
lradius 109.382 -0 0
lwrist 76.2031 0 0
lhand 11.7899 42.0633 0.0191634
lfingers 7.12502 -0 0
lthumb 36.7838 67.7684 -0.0724271
rclavicle 1.0399e-14 -2.38422e-14 1.8212e-31
rhumerus 2.95813 -3.77159 -73.519
rradius 108.084 -0 0
rwrist 33.0743 0 0
rhand -39.154 -47.0573 0.115161
rfingers 7.12502 -0 0
rthumb -12.1503 -76.5748 0.112059
2456
root 3.30731 14.6555 -23.5964 -153.365 82.6364 -150.676
lfemur -31.1001 22.0524 -12.8797
ltibia 75.4748 -0 0
lfoot -29.4339 18.2822 -0.0291595
ltoes -37.7355 0 0
rfemur -42.8306 -23.048 6.50018
rtibia 49.0431 -0 0
rfoot 14.848 3.66613 0.162275
rtoes 6.99765 -0 0
lowerback 15.8718 -0.402158 -5.35219
upperback -1.03888 -1.14203 3.71693
thorax -9.87497 -0.121611 7.41855
lowerneck 3.05549 -13.5092 -15.7893
upperneck 3.1607 -18.8432 12.4526
head 3.12069 -9.49732 5.44912
lclavicle 1.05337e-14 -2.46612e-14 1.31073e-31
lhumerus -48.4126 -45.5389 114.109
lradius 109.686 -0 0
lwrist 77.0741 0 0
lhand 12.5369 42.0783 0.0137816
lfingers 7.12502 -0 0
lthumb 37.5004 67.7094 -0.0520897
rclavicle 1.05337e-14 -2.46612e-14 1.31073e-31
rhumerus 2.12364 -4.82543 -73.5809
rradius 107.938 -0 0
rwrist 34.648 0 0
rhand -39.6564 -47.1935 0.0828525
rfingers 7.12502 -0 0
rthumb -12.6352 -76.7123 0.0806229
